<?xml version="1.0" encoding="UTF-8" standalone="no"?>
<svg
   version="1.1"
   width="22.14262"
   height="22.14262"
   viewBox="0,0,22.14262,22.14262"
   id="svg43"
   sodipodi:docname="7.svg"
   inkscape:export-filename="7.png"
   inkscape:export-xdpi="96"
   inkscape:export-ydpi="96"
   inkscape:version="1.2.1 (9c6d41e410, 2022-07-14)"
   xmlns:inkscape="http://www.inkscape.org/namespaces/inkscape"
   xmlns:sodipodi="http://sodipodi.sourceforge.net/DTD/sodipodi-0.dtd"
   xmlns="http://www.w3.org/2000/svg"
   xmlns:svg="http://www.w3.org/2000/svg">
  <sodipodi:namedview
     id="namedview45"
     pagecolor="#ffffff"
     bordercolor="#000000"
     borderopacity="0.25"
     inkscape:showpageshadow="2"
     inkscape:pageopacity="0.0"
     inkscape:pagecheckerboard="0"
     inkscape:deskcolor="#d1d1d1"
     showgrid="false"
     inkscape:zoom="8.3827266"
     inkscape:cx="-15.209848"
     inkscape:cy="12.287172"
     inkscape:window-width="1366"
     inkscape:window-height="705"
     inkscape:window-x="-8"
     inkscape:window-y="-8"
     inkscape:window-maximized="1"
     inkscape:current-layer="svg43" />
  <defs
     id="defs27">
    <radialGradient
       cx="240.27609"
       cy="180.33385"
       r="1.25895"
       gradientUnits="userSpaceOnUse"
       id="color-1">
      <stop
         offset="0"
         stop-color="#ffeae0"
         stop-opacity="0.56471"
         id="stop2" />
      <stop
         offset="1"
         stop-color="#f9f0db"
         id="stop4" />
    </radialGradient>
    <radialGradient
       cx="239.3"
       cy="179.64"
       r="2.16"
       gradientUnits="userSpaceOnUse"
       id="color-2">
      <stop
         offset="0"
         stop-color="#f8ff9f"
         stop-opacity="0.56471"
         id="stop7" />
      <stop
         offset="1"
         stop-color="#effa81"
         id="stop9" />
    </radialGradient>
    <radialGradient
       cx="240.17925"
       cy="180.39623"
       r="1.58491"
       gradientUnits="userSpaceOnUse"
       id="color-3">
      <stop
         offset="0"
         stop-color="#faffe0"
         stop-opacity="0.56471"
         id="stop12" />
      <stop
         offset="1"
         stop-color="#f9fadc"
         id="stop14" />
    </radialGradient>
    <radialGradient
       cx="239.3303"
       cy="180.33083"
       r="1.25895"
       gradientUnits="userSpaceOnUse"
       id="color-4">
      <stop
         offset="0"
         stop-color="#e0f4ff"
         stop-opacity="0.56471"
         id="stop17" />
      <stop
         offset="1"
         stop-color="#edfadc"
         id="stop19" />
    </radialGradient>
    <radialGradient
       cx="240"
       cy="180"
       r="11.06999"
       gradientUnits="userSpaceOnUse"
       id="color-5">
      <stop
         offset="0"
         stop-color="#ffffb0"
         stop-opacity="0.30588"
         id="stop22" />
      <stop
         offset="1"
         stop-color="#ffffb0"
         stop-opacity="0"
         id="stop24" />
    </radialGradient>
  </defs>
  <g
     transform="translate(-228.92869,-168.92869)"
     id="g41">
    <g
       data-paper-data="{&quot;isPaintingLayer&quot;:true}"
       fill-rule="nonzero"
       stroke="none"
       stroke-width="0"
       stroke-linecap="butt"
       stroke-linejoin="miter"
       stroke-miterlimit="10"
       stroke-dasharray=""
       stroke-dashoffset="0"
       style="mix-blend-mode: normal"
       id="g39">
      <path
         d="M240.26343,179.35834c0.16887,0.02307 1.1975,0.00905 1.31922,0.11091c0.18114,0.15158 -0.119,0.7776 -0.31811,1.11184c-0.04559,0.07654 -0.43119,-0.15681 -0.53403,0.1298c-0.16284,0.45383 -0.21322,0.72462 -0.69094,0.65937c-0.22728,-0.03104 -0.64783,-0.1752 -0.7757,-0.36184c-0.14089,-0.20566 0.01624,-0.46255 -0.13029,-0.66851c-0.23511,-0.33045 0.03497,-0.5386 0.21443,-0.74534c0.17356,-0.19994 0.68055,-0.2683 0.91541,-0.23622z"
         fill="url(#color-1)"
         id="path29" />
      <path
         d="M241.1,179.24c0,1.19294 -0.67216,1.32 -1.6,1.32c-0.37535,0 -1.64412,0.7821 -1.78348,0.49125c-0.20512,-0.4281 0.62348,-0.82091 0.62348,-1.53125c0,-0.64274 -0.89184,-0.51398 0.32488,-1.81559c0.49853,-0.53332 0.20111,0.14256 0.83512,0.33559c1.96145,0.59719 1.6,0.00706 1.6,1.2z"
         fill="url(#color-2)"
         id="path31" />
      <path
         d="M240.11854,180.84016c0.37487,0.41966 2.93151,-1.49838 2.12437,-2.18646c-0.33886,-0.28888 -0.45188,-0.24629 -0.8519,-0.51902c-0.38633,-0.26339 -0.71596,-0.24815 -0.88692,-0.46541c-0.24964,-0.31725 -0.90005,-0.88319 -0.94569,-0.49479c-0.16226,1.38063 -1.02629,1.79897 -0.57491,2.13408c2.14676,1.59375 0.34288,0.64479 1.13504,1.5316z"
         fill="url(#color-3)"
         id="path33" />
      <path
         d="M239.09109,179.16667c0.27957,-0.23018 0.75421,-0.2092 0.87593,-0.10734c0.18114,0.15158 0.74085,1.17891 0.54174,1.51315c-0.04559,0.07654 0.24137,0.69202 0.13853,0.97863c-0.16284,0.45383 -0.38903,0.16442 -0.86675,0.09917c-0.22728,-0.03104 -0.27826,-0.19094 -0.42479,-0.3969c-0.04588,-0.06448 -1.25642,-0.68698 -1.20021,-1.08975c0.07138,-0.51141 0.66426,-0.33792 0.71768,-0.36199c0.28204,-0.12712 0.25242,0.03376 0.36499,-0.09591c0.17356,-0.19994 -0.53245,-0.22182 -0.14713,-0.53906z"
         fill="url(#color-4)"
         id="path35" />
      <path
         d="M241.49815,169.03186c6.05756,0.82741 10.2974,6.40874 9.46999,12.4663c-0.82741,6.05756 -6.40874,10.2974 -12.4663,9.46999c-6.05756,-0.82741 -10.2974,-6.40874 -9.46999,-12.4663c0.82741,-6.05756 6.40874,-10.2974 12.4663,-9.46999z"
         fill="url(#color-5)"
         id="path37" />
    </g>
  </g>
</svg>
